<svg width="404" height="367" viewBox="0 0 404 367" fill="none" xmlns="http://www.w3.org/2000/svg">
<path fill-rule="evenodd" clip-rule="evenodd" d="M403.481 183.21C403.481 182.184 403.472 181.159 403.455 180.136L402.443 180.153C402.46 181.17 402.468 182.189 402.468 183.21H403.481ZM403.455 186.283L402.443 186.267C402.41 188.301 402.343 190.327 402.243 192.344L403.254 192.394C403.355 190.365 403.422 188.328 403.455 186.283ZM402.85 198.514L401.842 198.43C401.674 200.459 401.473 202.478 401.239 204.488L402.245 204.605C402.48 202.584 402.682 200.554 402.85 198.514ZM401.437 210.668L400.436 210.518C400.133 212.533 399.797 214.537 399.429 216.53L400.424 216.714C400.794 214.71 401.132 212.695 401.437 210.668ZM399.211 222.715L398.222 222.497C397.786 224.483 397.317 226.456 396.816 228.417L397.797 228.667C398.301 226.696 398.772 224.711 399.211 222.715ZM396.181 234.579L395.209 234.296C394.64 236.248 394.039 238.187 393.407 240.112L394.369 240.428C395.005 238.492 395.609 236.543 396.181 234.579ZM392.362 246.208L391.412 245.86C390.712 247.77 389.981 249.666 389.22 251.546L390.158 251.926C390.924 250.035 391.659 248.129 392.362 246.208ZM387.765 257.562L386.84 257.151C386.015 259.007 385.16 260.847 384.275 262.67L385.185 263.112C386.075 261.279 386.935 259.429 387.765 257.562ZM382.418 268.577L381.523 268.105C380.575 269.902 379.598 271.682 378.592 273.443L379.471 273.945C380.482 272.174 381.465 270.384 382.418 268.577ZM376.346 279.209L375.484 278.678C374.418 280.407 373.324 282.118 372.202 283.808L373.046 284.368C374.174 282.668 375.274 280.948 376.346 279.209ZM369.576 289.414L368.751 288.826C367.573 290.48 366.367 292.113 365.135 293.726L365.94 294.34C367.178 292.719 368.391 291.077 369.576 289.414ZM362.142 299.143L361.358 298.502C360.072 300.074 358.761 301.624 357.424 303.151L358.186 303.818C359.53 302.282 360.849 300.724 362.142 299.143ZM354.077 308.358L353.338 307.666C351.951 309.149 350.539 310.608 349.104 312.043L349.82 312.759C351.263 311.316 352.682 309.848 354.077 308.358ZM345.418 317.016L344.727 316.277C343.245 317.664 341.739 319.026 340.212 320.364L340.878 321.125C342.415 319.781 343.928 318.411 345.418 317.016ZM336.204 325.081L335.563 324.298C333.992 325.583 332.4 326.842 330.786 328.075L331.401 328.879C333.023 327.64 334.624 326.373 336.204 325.081ZM326.474 332.515L325.887 331.691C324.234 332.868 322.562 334.019 320.869 335.142L321.428 335.985C323.131 334.856 324.813 333.699 326.474 332.515ZM316.27 339.285L315.739 338.424C314.012 339.488 312.267 340.524 310.503 341.531L311.005 342.41C312.779 341.397 314.534 340.355 316.27 339.285ZM305.638 345.358L305.165 344.463C303.371 345.409 301.56 346.326 299.731 347.214L300.173 348.125C302.012 347.232 303.834 346.31 305.638 345.358ZM294.623 350.705L294.211 349.78C292.359 350.603 290.491 351.397 288.606 352.16L288.986 353.098C290.881 352.331 292.76 351.533 294.623 350.705ZM283.268 355.301L282.92 354.351C281.019 355.047 279.103 355.713 277.172 356.347L277.488 357.308C279.429 356.671 281.356 356.002 283.268 355.301ZM271.64 359.121L271.357 358.149C269.41 358.716 267.45 359.252 265.478 359.756L265.728 360.737C267.712 360.23 269.683 359.691 271.64 359.121ZM259.775 362.15L259.558 361.161C257.581 361.596 255.592 361.998 253.591 362.368L253.775 363.363C255.787 362.992 257.787 362.587 259.775 362.15ZM247.729 364.376L247.578 363.375C245.579 363.676 243.569 363.944 241.549 364.179L241.665 365.184C243.697 364.948 245.718 364.678 247.729 364.376ZM235.574 365.79L235.491 364.781C233.471 364.948 231.442 365.082 229.404 365.183L229.454 366.194C231.503 366.093 233.543 365.958 235.574 365.79ZM223.344 366.395L223.327 365.383C222.311 365.399 221.292 365.408 220.271 365.408V366.42C221.297 366.42 222.322 366.412 223.344 366.395ZM217.197 366.395L217.214 365.383C215.18 365.349 213.154 365.282 211.137 365.183L211.087 366.194C213.115 366.294 215.152 366.361 217.197 366.395ZM204.967 365.79L205.05 364.781C203.022 364.613 201.002 364.412 198.993 364.179L198.876 365.184C200.896 365.419 202.927 365.621 204.967 365.79ZM192.812 364.376L192.963 363.375C190.948 363.072 188.943 362.736 186.95 362.368L186.766 363.363C188.77 363.734 190.786 364.072 192.812 364.376ZM180.766 362.15L180.983 361.161C178.998 360.725 177.024 360.256 175.064 359.756L174.813 360.737C176.785 361.24 178.769 361.711 180.766 362.15ZM168.901 359.121L169.185 358.149C167.232 357.58 165.293 356.979 163.369 356.347L163.053 357.308C164.988 357.944 166.938 358.548 168.901 359.121ZM157.273 355.302L157.621 354.351C155.71 353.651 153.815 352.921 151.935 352.16L151.555 353.098C153.446 353.863 155.352 354.598 157.273 355.302ZM145.919 350.705L146.33 349.78C144.473 348.954 142.633 348.099 140.81 347.214L140.368 348.125C142.202 349.015 144.052 349.875 145.919 350.705ZM134.904 345.358L135.376 344.463C133.579 343.514 131.799 342.537 130.038 341.531L129.536 342.41C131.307 343.422 133.096 344.404 134.904 345.358ZM124.271 339.285L124.803 338.424C123.073 337.358 121.363 336.263 119.672 335.142L119.113 335.985C120.813 337.113 122.532 338.213 124.271 339.285ZM114.067 332.515L114.654 331.691C113 330.512 111.367 329.307 109.755 328.075L109.14 328.879C110.762 330.118 112.404 331.33 114.067 332.515ZM104.337 325.081L104.978 324.298C103.407 323.012 101.857 321.7 100.329 320.364L99.6628 321.125C101.199 322.469 102.757 323.788 104.337 325.081ZM95.1227 317.016L95.8143 316.277C94.3319 314.89 92.8727 313.479 91.4373 312.043L90.7215 312.759C92.1648 314.202 93.6321 315.622 95.1227 317.016ZM86.4641 308.358L87.2032 307.666C85.8165 306.184 84.4542 304.679 83.1171 303.151L82.3554 303.818C83.6999 305.354 85.0697 306.868 86.4641 308.358ZM78.3993 299.143L79.1827 298.502C77.8978 296.932 76.6385 295.339 75.4057 293.726L74.6014 294.34C75.8411 295.963 77.1073 297.564 78.3993 299.143ZM70.9656 289.414L71.7899 288.826C70.6124 287.174 69.4618 285.501 68.3387 283.808L67.4952 284.368C68.6245 286.07 69.7815 287.752 70.9656 289.414ZM64.1953 279.209L65.057 278.678C63.9929 276.952 62.9569 275.207 61.9495 273.443L61.0706 273.945C62.0836 275.718 63.1254 277.473 64.1953 279.209ZM58.1228 268.577L59.018 268.105C58.0715 266.311 57.1541 264.499 56.2664 262.67L55.3558 263.112C56.2485 264.951 57.171 266.773 58.1228 268.577ZM52.7759 257.562L53.7008 257.151C52.8774 255.299 52.0839 253.43 51.321 251.546L50.3828 251.926C51.1499 253.82 51.9479 255.699 52.7759 257.562ZM48.1791 246.208L49.1296 245.86C48.4334 243.958 47.768 242.042 47.1339 240.112L46.1722 240.428C46.8098 242.369 47.479 244.296 48.1791 246.208ZM44.3599 234.579L45.3317 234.296C44.7642 232.35 44.2284 230.39 43.7248 228.417L42.744 228.667C43.2505 230.651 43.7893 232.622 44.3599 234.579ZM41.3305 222.715L42.3191 222.497C41.8846 220.52 41.4822 218.531 41.1125 216.531L40.1171 216.714C40.4889 218.726 40.8935 220.727 41.3305 222.715ZM39.1044 210.668L40.1054 210.518C39.8049 208.518 39.5369 206.508 39.3019 204.488L38.2965 204.605C38.5328 206.636 38.8023 208.658 39.1044 210.668ZM37.6906 198.514L38.6994 198.43C38.5324 196.411 38.3983 194.382 38.2977 192.344L37.2867 192.394C37.3879 194.443 37.5227 196.483 37.6906 198.514ZM37.0858 186.284L38.0979 186.267C38.0812 185.25 38.0728 184.231 38.0728 183.21H37.0605C37.0605 184.237 37.069 185.261 37.0858 186.284ZM403.254 174.026C403.153 171.977 403.018 169.937 402.85 167.906L401.842 167.99C402.009 170.009 402.143 172.038 402.243 174.076L403.254 174.026ZM402.245 161.815L401.239 161.932C401.004 159.912 400.736 157.902 400.436 155.902L401.437 155.752C401.739 157.762 402.008 159.784 402.245 161.815ZM400.424 149.706L399.429 149.889C399.059 147.889 398.657 145.9 398.222 143.923L399.211 143.705C399.648 145.693 400.052 147.694 400.424 149.706ZM397.797 137.753L396.816 138.003C396.313 136.03 395.777 134.07 395.209 132.124L396.181 131.841C396.752 133.798 397.291 135.769 397.797 137.753ZM394.369 125.992L393.407 126.308C392.773 124.378 392.108 122.462 391.412 120.56L392.362 120.212C393.062 122.124 393.731 124.051 394.369 125.992ZM390.158 114.494L389.22 114.874C388.457 112.99 387.664 111.121 386.84 109.269L387.765 108.858C388.593 110.721 389.391 112.6 390.158 114.494ZM385.185 103.308L384.275 103.75C383.387 101.921 382.47 100.109 381.523 98.3153L382.418 97.843C383.37 99.647 384.293 101.469 385.185 103.308ZM379.471 92.4752L378.592 92.9773C377.584 91.2135 376.548 89.4682 375.484 87.742L376.346 87.2109C377.416 88.9467 378.458 90.7017 379.471 92.4752ZM373.046 82.0522L372.202 82.6118C371.079 80.919 369.929 79.2461 368.751 77.5937L369.576 77.0063C370.76 78.6679 371.917 80.35 373.046 82.0522ZM365.94 72.0799L365.135 72.6944C363.903 71.0808 362.643 69.4884 361.358 67.9178L362.142 67.2769C363.434 68.8561 364.7 70.4573 365.94 72.0799ZM358.186 62.6023L357.424 63.2689C356.087 61.7411 354.725 60.2358 353.338 58.7538L354.077 58.0622C355.471 59.5525 356.841 61.066 358.186 62.6023ZM349.82 53.661C348.376 52.2177 346.909 50.7983 345.418 49.4036L344.727 50.1427C346.209 51.5298 347.668 52.9413 349.104 54.3767L349.82 53.661ZM340.878 45.2948L340.212 46.0565C338.684 44.7198 337.134 43.4081 335.563 42.1222L336.204 41.3388C337.784 42.6318 339.343 43.9507 340.878 45.2948ZM331.401 37.5408L330.786 38.3451C329.174 37.1133 327.541 35.9079 325.887 34.7293L326.474 33.905C328.137 35.0901 329.78 36.3022 331.401 37.5408ZM321.428 30.4347L320.869 31.2781C319.178 30.1565 317.468 29.0624 315.739 27.9964L316.27 27.1347C318.009 28.2067 319.729 29.3069 321.428 30.4347ZM311.005 24.01C309.234 22.9985 307.445 22.0157 305.638 21.0622L305.165 21.9574C306.963 22.9056 308.742 23.883 310.503 24.8889L311.005 24.01ZM300.173 18.2953L299.731 19.2059C297.908 18.321 296.068 17.4656 294.211 16.6403L294.622 15.7153C296.489 16.5452 298.339 17.4054 300.173 18.2953ZM288.986 13.3222L288.606 14.2605C286.726 13.4993 284.831 12.7686 282.92 12.069L283.268 11.1185C285.189 11.8221 287.096 12.5568 288.986 13.3222ZM277.488 9.11167L277.172 10.0733C275.248 9.4412 273.309 8.84025 271.357 8.2711L271.64 7.29934C273.603 7.87168 275.553 8.47599 277.488 9.11167ZM265.728 5.68344L265.478 6.66419C263.517 6.16365 261.543 5.6949 259.558 5.25854L259.775 4.26992C261.772 4.70872 263.756 5.18009 265.728 5.68344ZM253.775 3.05654L253.591 4.0519C251.598 3.68359 249.594 3.34771 247.578 3.04484L247.729 2.04388C249.755 2.34843 251.771 2.68618 253.775 3.05654ZM241.665 1.23592L241.548 2.24135C239.539 2.00764 237.52 1.80661 235.491 1.63883L235.574 0.630067C237.614 0.798775 239.645 1.00091 241.665 1.23592ZM229.454 0.226163L229.404 1.23714C227.387 1.13756 225.361 1.07079 223.327 1.03733L223.344 0.0252594C225.389 0.058896 227.426 0.126039 229.454 0.226163ZM220.271 0C219.244 0 218.22 0.0084422 217.197 0.025261L217.214 1.03733C218.231 1.02061 219.25 1.01221 220.271 1.01221V0ZM211.087 0.226167C209.038 0.327321 206.998 0.462137 204.967 0.630074L205.05 1.63884C207.07 1.47183 209.099 1.33775 211.137 1.23715L211.087 0.226167ZM198.876 1.23593L198.993 2.24136C196.972 2.47634 194.962 2.74435 192.963 3.04486L192.812 2.0439C194.823 1.74171 196.844 1.47221 198.876 1.23593ZM186.766 3.05656L186.95 4.05192C184.949 4.42164 182.96 4.82405 180.983 5.25856L180.766 4.26995C182.754 3.833 184.754 3.42835 186.766 3.05656ZM174.813 5.68346L175.063 6.66422C173.091 7.16785 171.131 7.70369 169.184 8.27113L168.901 7.29937C170.858 6.72875 172.829 6.18992 174.813 5.68346ZM163.053 9.1117L163.369 10.0734C161.438 10.7074 159.522 11.3728 157.621 12.0691L157.273 11.1186C159.185 10.4185 161.112 9.7493 163.053 9.1117ZM151.555 13.3223L151.935 14.2605C150.051 15.0234 148.182 15.8168 146.33 16.6403L145.919 15.7154C147.781 14.8873 149.66 14.0894 151.555 13.3223ZM140.368 18.2953L140.81 19.2059C138.982 20.0936 137.17 21.011 135.376 21.9575L134.904 21.0622C136.708 20.1105 138.529 19.1879 140.368 18.2953ZM129.536 24.01C127.762 25.023 126.007 26.0648 124.271 27.1348L124.803 27.9964C126.529 26.9324 128.274 25.8964 130.038 24.889L129.536 24.01ZM119.113 30.4347L119.672 31.2781C117.98 32.4012 116.307 33.5518 114.654 34.7293L114.067 33.905C115.728 32.721 117.411 31.564 119.113 30.4347ZM109.14 37.5408L109.755 38.3451C108.141 39.578 106.549 40.8372 104.978 42.1222L104.337 41.3388C105.917 40.0467 107.518 38.7805 109.14 37.5408ZM99.6628 45.2948L100.329 46.0565C98.8016 47.3937 97.2964 48.7559 95.8143 50.1427L95.1227 49.4036C96.613 48.0092 98.1266 46.6394 99.6628 45.2948ZM90.7215 53.661C89.2782 55.1043 87.8588 56.5716 86.4641 58.0622L87.2032 58.7538C88.5903 57.2713 90.0019 55.8121 91.4373 54.3767L90.7215 53.661ZM82.3554 62.6022L83.1171 63.2689C81.7803 64.7962 80.4686 66.3461 79.1827 67.9178L78.3993 67.2769C79.6923 65.6964 81.0112 64.138 82.3554 62.6022ZM74.6013 72.0799L75.4057 72.6944C74.1739 74.3066 72.9684 75.9399 71.7899 77.5937L70.9656 77.0063C72.1506 75.3433 73.3628 73.701 74.6013 72.0799ZM67.4952 82.0522L68.3387 82.6118C67.2171 84.3023 66.123 86.0126 65.057 87.742L64.1953 87.2109C65.2672 85.4718 66.3674 83.7521 67.4952 82.0522ZM61.0705 92.4753L61.9495 92.9773C60.9436 94.7384 59.9662 96.518 59.018 98.3153L58.1227 97.843C59.0762 96.0357 60.059 94.2462 61.0705 92.4753ZM55.3558 103.308L56.2664 103.75C55.3815 105.573 54.5261 107.413 53.7008 109.269L52.7759 108.858C53.6058 106.991 54.466 105.141 55.3558 103.308ZM50.3828 114.494L51.321 114.874C50.5599 116.754 49.8292 118.65 49.1296 120.56L48.1791 120.212C48.8826 118.291 49.6174 116.385 50.3828 114.494ZM46.1722 125.992L47.1339 126.308C46.5017 128.233 45.9008 130.172 45.3316 132.124L44.3599 131.841C44.9322 129.877 45.5365 127.928 46.1722 125.992ZM42.744 137.753L43.7247 138.003C43.2242 139.964 42.7554 141.937 42.3191 143.923L41.3305 143.705C41.7693 141.709 42.2406 139.724 42.744 137.753ZM40.1171 149.706L41.1124 149.89C40.7441 151.883 40.4083 153.887 40.1054 155.902L39.1044 155.752C39.409 153.725 39.7467 151.71 40.1171 149.706ZM38.2965 161.815L39.3019 161.932C39.0682 163.942 38.8672 165.961 38.6994 167.99L37.6906 167.907C37.8593 165.866 38.0615 163.836 38.2965 161.815ZM37.2867 174.026L38.2977 174.076C38.1981 176.094 38.1313 178.119 38.0979 180.153L37.0858 180.137C37.1194 178.092 37.1866 176.055 37.2867 174.026Z" fill="#2E096F" fill-opacity="0.3"/>
<path d="M30.9874 3.03662L32.7077 13.4809C34.2464 22.8224 41.568 30.1439 50.9094 31.6826L61.3537 33.4029L50.9094 35.1233C41.568 36.6619 34.2464 43.9835 32.7077 53.3249L30.9874 63.7692L29.267 53.3249C27.7284 43.9835 20.4068 36.6619 11.0654 35.1233L0.621094 33.4029L11.0654 31.6826C20.4068 30.1439 27.7284 22.8224 29.267 13.4809L30.9874 3.03662Z" fill="#81B0E6"/>
</svg>
